<svg width="38" height="38" viewBox="0 0 38 38" fill="none" xmlns="http://www.w3.org/2000/svg">
<rect width="38" height="38" rx="6" fill="#FF9F43" fill-opacity="0.08"/>
<ellipse cx="15.4999" cy="13.1667" rx="4.66667" ry="4.66667" stroke="#FF9F43" stroke-width="1.5" stroke-linecap="round" stroke-linejoin="round"/>
<path d="M8.5 29.5V27.1667C8.5 24.5893 10.5893 22.5 13.1667 22.5H17.8333C20.4107 22.5 22.5 24.5893 22.5 27.1667V29.5" stroke="#FF9F43" stroke-width="1.75" stroke-linecap="round" stroke-linejoin="round"/>
<path d="M25.3636 14.9697C25.0707 14.6768 24.5958 14.6768 24.3029 14.9697C24.01 15.2626 24.01 15.7374 24.3029 16.0303L25.3636 14.9697ZM28.9696 20.697C29.2625 20.9899 29.7374 20.9899 30.0302 20.697C30.3231 20.4041 30.3231 19.9292 30.0302 19.6363L28.9696 20.697ZM30.0302 16.0303C30.3231 15.7374 30.3231 15.2626 30.0302 14.9697C29.7374 14.6768 29.2625 14.6768 28.9696 14.9697L30.0302 16.0303ZM24.3029 19.6363C24.01 19.9292 24.01 20.4041 24.3029 20.697C24.5958 20.9899 25.0707 20.9899 25.3636 20.697L24.3029 19.6363ZM24.3029 16.0303L28.9696 20.697L30.0302 19.6363L25.3636 14.9697L24.3029 16.0303ZM28.9696 14.9697L24.3029 19.6363L25.3636 20.697L30.0302 16.0303L28.9696 14.9697Z" fill="#FF9F43"/>
</svg>
