<svg width="39" height="38" viewBox="0 0 39 38" fill="none" xmlns="http://www.w3.org/2000/svg">
<rect x="0.799805" width="38" height="38" rx="6" fill="#00CFE8" fill-opacity="0.08"/>
<circle cx="19.7998" cy="19" r="10.5" stroke="#00CFE8" stroke-width="1.5" stroke-linecap="round" stroke-linejoin="round"/>
<path d="M23.0665 15.5C22.6358 14.7529 21.8283 14.3043 20.9665 14.3333H18.6331C17.3445 14.3333 16.2998 15.378 16.2998 16.6666C16.2998 17.9553 17.3445 19 18.6331 19H20.9665C22.2551 19 23.2998 20.0446 23.2998 21.3333C23.2998 22.622 22.2551 23.6666 20.9665 23.6666H18.6331C17.7713 23.6957 16.9638 23.247 16.5331 22.5" stroke="#00CFE8" stroke-width="1.75" stroke-linecap="round" stroke-linejoin="round"/>
<path d="M20.5499 12C20.5499 11.5858 20.2141 11.25 19.7999 11.25C19.3857 11.25 19.0499 11.5858 19.0499 12H20.5499ZM19.0499 14.3333C19.0499 14.7475 19.3857 15.0833 19.7999 15.0833C20.2141 15.0833 20.5499 14.7475 20.5499 14.3333H19.0499ZM20.5499 23.6667C20.5499 23.2525 20.2141 22.9167 19.7999 22.9167C19.3857 22.9167 19.0499 23.2525 19.0499 23.6667H20.5499ZM19.0499 26C19.0499 26.4142 19.3857 26.75 19.7999 26.75C20.2141 26.75 20.5499 26.4142 20.5499 26H19.0499ZM19.0499 12V14.3333H20.5499V12H19.0499ZM19.0499 23.6667V26H20.5499V23.6667H19.0499Z" fill="#00CFE8"/>
</svg>
