<svg width="39" height="38" viewBox="0 0 39 38" fill="none" xmlns="http://www.w3.org/2000/svg">
<rect x="0.199951" width="38" height="38" rx="6" fill="#EA5455" fill-opacity="0.08"/>
<path d="M22.7 8.5V13.1667C22.7 13.811 23.2223 14.3333 23.8666 14.3333H28.5333" stroke="#EA5455" stroke-width="1.5" stroke-linecap="round" stroke-linejoin="round"/>
<path d="M16.575 15.5H17.325C17.325 15.0858 16.9892 14.75 16.575 14.75V15.5ZM25.0333 23.9583H25.7833C25.7833 23.5441 25.4475 23.2083 25.0333 23.2083V23.9583ZM25.0333 25.7083V26.4583C25.4475 26.4583 25.7833 26.1225 25.7833 25.7083H25.0333ZM14.825 15.5V14.75C14.4107 14.75 14.075 15.0858 14.075 15.5H14.825ZM14.95 10.8333C14.95 11.2475 15.2857 11.5833 15.7 11.5833C16.1142 11.5833 16.45 11.2475 16.45 10.8333H14.95ZM22.7 8.5L23.2303 7.96967C23.0896 7.82902 22.8989 7.75 22.7 7.75V8.5ZM28.5333 14.3333H29.2833C29.2833 14.1344 29.2043 13.9437 29.0636 13.803L28.5333 14.3333ZM27.6439 23.15C27.4726 23.5272 27.6395 23.9717 28.0166 24.143C28.3938 24.3143 28.8384 24.1475 29.0097 23.7703L27.6439 23.15ZM17.325 22.5V15.5H15.825V22.5H17.325ZM18.0333 23.2083C17.6421 23.2083 17.325 22.8912 17.325 22.5H15.825C15.825 23.7196 16.8137 24.7083 18.0333 24.7083V23.2083ZM25.0333 23.2083H18.0333V24.7083H25.0333V23.2083ZM25.7833 25.7083V23.9583H24.2833V25.7083H25.7833ZM18.0333 26.4583H25.0333V24.9583H18.0333V26.4583ZM14.075 22.5C14.075 24.6861 15.8472 26.4583 18.0333 26.4583V24.9583C16.6756 24.9583 15.575 23.8577 15.575 22.5H14.075ZM14.075 15.5V22.5H15.575V15.5H14.075ZM16.575 14.75H14.825V16.25H16.575V14.75ZM16.45 10.8333C16.45 9.95888 17.1588 9.25 18.0333 9.25V7.75C16.3304 7.75 14.95 9.13046 14.95 10.8333H16.45ZM18.0333 9.25H22.7V7.75H18.0333V9.25ZM22.1696 9.03033L28.003 14.8637L29.0636 13.803L23.2303 7.96967L22.1696 9.03033ZM27.7833 14.3333V22.5H29.2833V14.3333H27.7833ZM27.7833 22.5C27.7833 22.7345 27.7333 22.9532 27.6439 23.15L29.0097 23.7703C29.1863 23.3814 29.2833 22.9515 29.2833 22.5H27.7833Z" fill="#EA5455"/>
<path d="M23.8665 24.8333V27.1667C23.8665 28.4553 22.8219 29.5 21.5332 29.5H13.3665C12.0779 29.5 11.0332 28.4553 11.0332 27.1667V15.5C11.0332 14.2113 12.0779 13.1667 13.3665 13.1667" stroke="#EA5455" stroke-width="1.5" stroke-linecap="round" stroke-linejoin="round"/>
<path d="M8.69995 8.5L29.7 29.5" stroke="#EA5455" stroke-width="1.5" stroke-linecap="round" stroke-linejoin="round"/>
</svg>
