<svg width="22" height="23" viewBox="0 0 22 23" fill="none" xmlns="http://www.w3.org/2000/svg">
<path d="M7.33301 7.70833C7.33301 6.18955 8.76943 4.95833 10.5413 4.95833H11.458C13.2299 4.95833 14.6663 6.18955 14.6663 7.70833C14.7357 8.93094 13.9882 10.0521 12.833 10.4583C11.6778 11 10.9303 12.4948 10.9997 14.125" stroke="#4B465C" stroke-width="1.5" stroke-linecap="round" stroke-linejoin="round"/>
<path d="M7.33301 7.70833C7.33301 6.18955 8.76943 4.95833 10.5413 4.95833H11.458C13.2299 4.95833 14.6663 6.18955 14.6663 7.70833C14.7357 8.93094 13.9882 10.0521 12.833 10.4583C11.6778 11 10.9303 12.4948 10.9997 14.125" stroke="white" stroke-opacity="0.2" stroke-width="1.5" stroke-linecap="round" stroke-linejoin="round"/>
<path d="M11.0003 17.7917V17.8008" stroke="#4B465C" stroke-width="1.5" stroke-linecap="round" stroke-linejoin="round"/>
<path d="M11.0003 17.7917V17.8008" stroke="white" stroke-opacity="0.2" stroke-width="1.5" stroke-linecap="round" stroke-linejoin="round"/>
</svg>
