<svg width="22" height="23" viewBox="0 0 22 23" fill="none" xmlns="http://www.w3.org/2000/svg">
<circle cx="10.9997" cy="11.375" r="0.916667" stroke="#4B465C" stroke-width="1.5" stroke-linecap="round" stroke-linejoin="round"/>
<circle cx="10.9997" cy="11.375" r="0.916667" stroke="white" stroke-opacity="0.2" stroke-width="1.5" stroke-linecap="round" stroke-linejoin="round"/>
<path d="M6.41699 11.375C6.41699 13.9063 8.46902 15.9583 11.0003 15.9583C13.5316 15.9583 15.5837 13.9063 15.5837 11.375C15.5837 8.8437 13.5316 6.79167 11.0003 6.79167" stroke="#4B465C" stroke-width="1.5" stroke-linecap="round" stroke-linejoin="round"/>
<path d="M6.41699 11.375C6.41699 13.9063 8.46902 15.9583 11.0003 15.9583C13.5316 15.9583 15.5837 13.9063 15.5837 11.375C15.5837 8.8437 13.5316 6.79167 11.0003 6.79167" stroke="white" stroke-opacity="0.2" stroke-width="1.5" stroke-linecap="round" stroke-linejoin="round"/>
<path d="M5.76562 17.7523C8.57462 20.0576 12.5613 20.2535 15.5828 18.2347C18.6043 16.2159 19.9491 12.4578 18.8943 8.9804C17.8396 5.50295 14.6337 3.12514 10.9998 3.125" stroke="#4B465C" stroke-width="1.5" stroke-linecap="round" stroke-linejoin="round"/>
<path d="M5.76562 17.7523C8.57462 20.0576 12.5613 20.2535 15.5828 18.2347C18.6043 16.2159 19.9491 12.4578 18.8943 8.9804C17.8396 5.50295 14.6337 3.12514 10.9998 3.125" stroke="white" stroke-opacity="0.2" stroke-width="1.5" stroke-linecap="round" stroke-linejoin="round"/>
</svg>
