<svg width="38" height="38" viewBox="0 0 38 38" fill="none" xmlns="http://www.w3.org/2000/svg">
<rect width="38" height="38" rx="6" fill="#EA5455" fill-opacity="0.08"/>
<circle cx="19.0002" cy="19" r="4.66667" stroke="#EA5455" stroke-width="1.5" stroke-linecap="round" stroke-linejoin="round"/>
<path d="M8.5 19.875H7.75C7.75 20.2892 8.08579 20.625 8.5 20.625V19.875ZM9.66667 19.875V20.625C10.0809 20.625 10.4167 20.2892 10.4167 19.875H9.66667ZM8.5 18.125V17.375C8.08579 17.375 7.75 17.7108 7.75 18.125H8.5ZM9.66667 18.125H10.4167C10.4167 17.7108 10.0809 17.375 9.66667 17.375V18.125ZM19.75 8.5C19.75 8.08579 19.4142 7.75 19 7.75C18.5858 7.75 18.25 8.08579 18.25 8.5H19.75ZM18.25 9.66667C18.25 10.0809 18.5858 10.4167 19 10.4167C19.4142 10.4167 19.75 10.0809 19.75 9.66667H18.25ZM28.3333 18.25C27.9191 18.25 27.5833 18.5858 27.5833 19C27.5833 19.4142 27.9191 19.75 28.3333 19.75V18.25ZM29.5 19.75C29.9142 19.75 30.25 19.4142 30.25 19C30.25 18.5858 29.9142 18.25 29.5 18.25V19.75ZM19.75 28.3333C19.75 27.9191 19.4142 27.5833 19 27.5833C18.5858 27.5833 18.25 27.9191 18.25 28.3333H19.75ZM18.25 29.5C18.25 29.9142 18.5858 30.25 19 30.25C19.4142 30.25 19.75 29.9142 19.75 29.5H18.25ZM12.0636 11.0029C11.7707 10.7101 11.2958 10.7101 11.0029 11.0029C10.7101 11.2958 10.7101 11.7707 11.0029 12.0636L12.0636 11.0029ZM11.8196 12.8803C12.1125 13.1732 12.5874 13.1732 12.8803 12.8803C13.1732 12.5874 13.1732 12.1125 12.8803 11.8196L11.8196 12.8803ZM26.9971 12.0636C27.2899 11.7707 27.2899 11.2958 26.9971 11.0029C26.7042 10.7101 26.2293 10.7101 25.9364 11.0029L26.9971 12.0636ZM25.1197 11.8196C24.8268 12.1125 24.8268 12.5874 25.1197 12.8803C25.4126 13.1732 25.8875 13.1732 26.1804 12.8803L25.1197 11.8196ZM26.1804 25.1197C25.8875 24.8268 25.4126 24.8268 25.1197 25.1197C24.8268 25.4126 24.8268 25.8875 25.1197 26.1804L26.1804 25.1197ZM25.9364 26.9971C26.2293 27.2899 26.7042 27.2899 26.9971 26.9971C27.2899 26.7042 27.2899 26.2293 26.9971 25.9364L25.9364 26.9971ZM12.8803 26.1804C13.1732 25.8875 13.1732 25.4126 12.8803 25.1197C12.5874 24.8268 12.1125 24.8268 11.8196 25.1197L12.8803 26.1804ZM11.0029 25.9364C10.7101 26.2293 10.7101 26.7042 11.0029 26.9971C11.2958 27.2899 11.7707 27.2899 12.0636 26.9971L11.0029 25.9364ZM8.5 20.625H9.66667V19.125H8.5V20.625ZM7.75 18.125V19.875H9.25V18.125H7.75ZM9.66667 17.375H8.5V18.875H9.66667V17.375ZM10.4167 19.875V18.125H8.91667V19.875H10.4167ZM18.25 8.5V9.66667H19.75V8.5H18.25ZM28.3333 19.75H29.5V18.25H28.3333V19.75ZM18.25 28.3333V29.5H19.75V28.3333H18.25ZM11.0029 12.0636L11.8196 12.8803L12.8803 11.8196L12.0636 11.0029L11.0029 12.0636ZM25.9364 11.0029L25.1197 11.8196L26.1804 12.8803L26.9971 12.0636L25.9364 11.0029ZM25.1197 26.1804L25.9364 26.9971L26.9971 25.9364L26.1804 25.1197L25.1197 26.1804ZM11.8196 25.1197L11.0029 25.9364L12.0636 26.9971L12.8803 26.1804L11.8196 25.1197Z" fill="#EA5455"/>
</svg>
